<?xml version="1.0" encoding="UTF-8"?>
<svg width="24pt" height="24pt" viewBox="0 0 32 32"
     version="1.1"
     xmlns="http://www.w3.org/2000/svg">

  <defs>
    <!-- White = visible, Black = transparent -->
    <mask id="cutout-mask">
      <!-- Entire icon visible by default -->
      <rect x="0" y="0" width="32" height="32" fill="white"/>

      <!-- Knockout shapes (the K and bars) -->
      <path fill="black" d="M 26.24 24.49 C 26.26 19.24 26.26 13.99 26.24 8.73 C 27.00 8.74 28.50 8.75 29.26 8.75 C 29.25 14.00 29.25 19.25 29.26 24.49 C 28.50 24.49 26.99 24.49 26.24 24.49 Z"/>
      <path fill="black" d="M 4.74 10.50 C 5.30 10.49 6.43 10.45 7.00 10.44 C 7.00 14.04 6.98 17.65 7.02 21.26 C 6.45 21.25 5.31 21.25 4.74 21.25 C 4.75 17.66 4.76 14.08 4.74 10.50 Z"/>
      <path fill="black" d="M 7.11 15.76 C 8.85 13.64 9.66 9.87 13.14 10.30 C 11.71 11.93 10.91 14.01 9.37 15.55 C 10.78 17.51 12.24 19.44 13.54 21.48 C 9.91 21.92 8.88 18.04 7.11 15.76 Z"/>
      <path fill="black" d="M 22.00 16.25 C 22.75 16.25 24.25 16.25 24.99 16.25 C 24.99 19.00 25.01 21.75 25.00 24.50 C 24.25 24.50 22.75 24.50 22.00 24.50 C 21.99 21.75 22.01 19.00 22.00 16.25 Z"/>
    </mask>
  </defs>

  <!-- Background shapes with mask applied -->
  <g mask="url(#cutout-mask)">
    <path fill="#222222" d="M 0.00 0.00 L 32.00 0.00 L 32.00 4.80 C 27.67 4.72 23.33 4.80 19.00 4.70 C 19.01 7.36 18.99 10.01 19.00 12.66 C 19.44 12.71 20.31 12.81 20.75 12.86 C 20.73 16.48 20.81 20.11 20.67 23.73 C 19.75 24.77 19.02 25.93 18.48 27.21 C 22.99 27.29 27.49 27.23 32.00 27.23 L 32.00 32.00 L 0.00 32.00 L 0.00 27.94 C 6.01 28.97 12.01 30.03 18.01 31.11 C 17.99 21.04 18.00 10.97 18.00 0.90 C 12.01 2.04 5.97 2.89 0.00 4.16 L 0.00 0.00 Z"/>
    <path fill="#DDDDDD" d="M 0.00 4.16 C 5.97 2.89 12.01 2.04 18.00 0.90 C 18.00 10.97 17.99 21.04 18.01 31.11 C 12.01 30.03 6.01 28.97 0.00 27.94 L 0.00 4.16 Z"/>
    <path fill="#DDDDDD" d="M 19.00 4.70 C 23.33 4.80 27.67 4.72 32.00 4.80 L 32.00 27.23 C 27.49 27.23 22.99 27.29 18.48 27.21 C 19.02 25.93 19.75 24.77 20.67 23.73 C 20.81 20.11 20.73 16.48 20.75 12.86 C 20.31 12.81 19.44 12.71 19.00 12.66 C 18.99 10.01 19.01 7.36 19.00 4.70 Z"/>
  </g>

</svg>
